<svg width="120" height="25" viewBox="0 0 120 25" fill="none" xmlns="http://www.w3.org/2000/svg">
<path d="M39.4074 18.9571V8.99378C39.4074 8.7537 39.623 8.54363 39.8694 8.54363H40.2082C40.4546 8.54363 40.6702 8.72369 40.6702 8.99378V18.9571C40.6702 21.508 42.3335 23.2785 45.4751 23.2785C48.6476 23.2785 50.3109 21.4779 50.3109 18.9571V8.93376C50.3109 8.72369 50.4957 8.54363 50.7113 8.54363H51.2349C51.4197 8.54363 51.5737 8.69368 51.5737 8.87374V18.9271C51.5737 22.2282 49.1404 24.4189 45.5059 24.4189C41.8406 24.4189 39.4074 22.2582 39.4074 18.9571Z" fill="#161616"/>
<path d="M45.5059 24.9891C41.5326 24.9891 38.853 22.5583 38.853 18.9571V8.99378C38.853 8.4536 39.315 8.00345 39.9002 8.00345H40.239C40.8242 8.00345 41.2862 8.4536 41.2862 8.99378V18.9571C41.2862 21.3279 42.8571 22.7384 45.4751 22.7384C48.124 22.7384 49.6948 21.3279 49.6948 18.9571V8.93376C49.6948 8.39358 50.1261 8.00345 50.6805 8.00345H51.2041C51.7277 8.00345 52.1589 8.39358 52.1589 8.90375V18.9571C52.1589 22.5583 49.4792 24.9891 45.5059 24.9891ZM40.0234 9.11382V18.9571C40.0234 21.9281 42.1487 23.8487 45.5059 23.8487C48.8632 23.8487 50.9885 21.9281 50.9885 18.9271V9.11382H50.9269V18.9571C50.9269 21.9881 48.8632 23.8487 45.5059 23.8487C42.2103 23.8487 40.1158 21.9281 40.1158 18.9571V9.11382H40.0234Z" fill="#161616"/>
<path d="M59.0761 20.5285L59.3533 20.3784C59.5997 20.2284 59.8769 20.3184 60.0001 20.5885C60.6777 22.2091 62.3102 23.2594 64.805 23.2594C67.5771 23.2594 68.9632 21.939 68.9632 20.1384C68.9632 18.2477 67.2075 17.5575 64.6818 16.7773C61.9098 15.937 59.4457 15.1867 59.4457 12.4558C59.4457 9.87495 61.6634 8.25441 64.4662 8.25441C66.9303 8.25441 68.6552 9.48482 69.5792 11.0753C69.6716 11.4055 69.5484 11.7056 69.302 11.8256C68.994 11.9756 68.5627 11.8856 68.4087 11.5855C67.7003 10.4151 66.4991 9.45481 64.4354 9.45481C62.1562 9.45481 60.6777 10.7452 60.6777 12.4558C60.6777 14.3464 62.341 14.9166 64.7434 15.6369C67.6695 16.5672 70.226 17.4375 70.226 20.1384C70.226 22.7192 68.0699 24.4298 64.7742 24.4298C61.8482 24.4298 59.7537 23.1094 58.8605 21.1287C58.7681 20.9186 58.8605 20.6485 59.0761 20.5285Z" fill="#161616"/>
<path d="M64.7742 25C61.725 25 59.2917 23.6495 58.3061 21.3688C58.1213 20.8886 58.3061 20.3484 58.7681 20.0784L59.0453 19.9283C59.3225 19.7783 59.6305 19.7482 59.9077 19.8383C60.1849 19.9283 60.4313 20.1384 60.5237 20.3785C61.1706 21.879 62.6798 22.7192 64.7742 22.7192C67.0227 22.7192 68.3471 21.7589 68.3471 20.1384C68.3471 18.7279 67.1151 18.0977 64.497 17.3174L64.4354 17.2874C61.6942 16.4471 58.8605 15.5769 58.8605 12.4858C58.7989 9.75492 61.1706 7.74424 64.4354 7.74424C66.8687 7.74424 68.9324 8.88462 70.0412 10.8653C70.3184 11.3755 70.1028 12.0357 69.5792 12.3058C68.9632 12.6359 68.2239 12.4258 67.8851 11.8556C67.1459 10.6552 65.9755 9.995 64.4354 9.995C62.5258 9.995 61.263 10.9553 61.263 12.4558C61.263 13.8363 62.3718 14.3464 64.8975 15.1267C67.6695 15.997 70.8112 16.9573 70.8112 20.1384C70.7804 23.0493 68.3779 25 64.7742 25ZM59.4457 20.9787C60.2773 22.8093 62.2178 23.8596 64.7742 23.8596C67.7003 23.8596 69.6408 22.3891 69.6408 20.1384C69.6408 18.6679 68.7784 17.8576 67.2999 17.1674C68.6243 17.7976 69.5484 18.6679 69.5484 20.1684C69.5484 22.4191 67.6695 23.8596 64.7742 23.8596C62.2794 23.8596 60.3389 22.8093 59.5073 20.9787H59.4457ZM64.4046 8.88462C61.8174 8.88462 59.9693 10.3851 59.9693 12.5158C59.9693 14.7066 61.7866 15.3668 64.7434 16.2671L64.805 16.2971C64.9591 16.3571 65.1131 16.3871 65.2671 16.4471C65.0207 16.3871 64.7742 16.2971 64.5278 16.2071C62.2486 15.4868 60.0925 14.8266 60.0925 12.4858C60.0617 10.3551 61.879 8.88462 64.4046 8.88462C66.9303 8.88462 68.2547 10.2051 68.9016 11.3154C68.9324 11.3154 68.9324 11.3454 68.9632 11.3454C68.4087 10.4151 67.1151 8.88462 64.4046 8.88462Z" fill="#161616"/>
<path d="M86.9675 23.3986V23.8787C86.9675 24.0588 86.8135 24.2089 86.6287 24.2089H78.2817C77.8197 24.2089 77.4501 23.8787 77.4501 23.4286V9.50396C77.4501 8.96378 77.8813 8.57365 78.4358 8.57365H86.5055C86.6903 8.57365 86.8751 8.7237 86.8751 8.90376V9.3239C86.8751 9.53397 86.6903 9.68402 86.4747 9.68402H79.8526C79.2058 9.68402 78.713 10.1642 78.713 10.7644V14.8758C78.713 15.3559 79.1134 15.746 79.637 15.746H85.9203C86.1051 15.746 86.2899 15.8961 86.2899 16.0762V16.4963C86.2899 16.7064 86.1051 16.8564 85.8895 16.8564H79.6062C79.1134 16.8564 78.713 17.2165 78.713 17.6967V22.1382C78.713 22.6483 79.1442 23.0685 79.6986 23.0685H86.6287C86.8135 23.0685 86.9675 23.2185 86.9675 23.3986Z" fill="#161616"/>
<path d="M86.6287 24.749H78.2817C77.5117 24.749 76.8649 24.1488 76.8649 23.4286V9.50395C76.8649 8.69368 77.5733 8.00345 78.4357 8.00345H86.5055C87.0291 8.00345 87.4604 8.42359 87.4604 8.90375V9.32389C87.4604 9.83406 87.0292 10.2542 86.4747 10.2542H79.8526C79.5754 10.2542 79.2981 10.4943 79.2981 10.7944V14.8757C79.2981 15.0258 79.4522 15.1758 79.6062 15.1758H85.8895C86.4131 15.1758 86.8443 15.566 86.8443 16.0761V16.4963C86.8443 17.0065 86.4131 17.4266 85.8587 17.4266H79.5754C79.3906 17.4266 79.2981 17.5766 79.2981 17.6967V22.1382C79.2981 22.3482 79.483 22.4983 79.6986 22.4983H86.6287C87.1524 22.4983 87.5836 22.9184 87.5836 23.3986V23.8787C87.5528 24.3589 87.1524 24.749 86.6287 24.749ZM78.4357 9.11382C78.2201 9.11382 78.0353 9.29388 78.0353 9.50395V23.4286C78.0353 23.5486 78.1277 23.6387 78.2509 23.6387H86.3515H79.6062C78.7437 23.6387 78.0661 22.9784 78.0661 22.1682V17.6967C78.0661 16.9164 78.7129 16.2862 79.5446 16.2862H85.6123H79.5754C78.7437 16.2862 78.0661 15.656 78.0661 14.8757V10.7644C78.0661 9.86407 78.8361 9.14383 79.791 9.14383L78.4357 9.11382Z" fill="#161616"/>
<path d="M103.367 23.3686V23.7587C103.367 23.9988 103.182 24.2089 102.905 24.2089H94.7115C94.4651 24.2089 94.2803 24.0288 94.2803 23.7887V8.96377C94.2803 8.72369 94.4651 8.54363 94.7115 8.54363H95.1736C95.3584 8.54363 95.5432 8.69368 95.5432 8.87374V22.1682C95.5432 22.6483 95.9436 23.0385 96.4672 23.0385H103.028C103.213 23.0685 103.367 23.1885 103.367 23.3686Z" fill="#161616"/>
<path d="M102.905 24.749H94.7115C94.1571 24.749 93.6951 24.2989 93.6951 23.7887V8.96377C93.6951 8.42359 94.1571 8.00345 94.7115 8.00345H95.1736C95.6972 8.00345 96.1284 8.42359 96.1284 8.90375V22.1982C96.1284 22.3782 96.2824 22.5283 96.4672 22.5283H103.028C103.551 22.5283 103.921 22.9184 103.921 23.3686V23.7587C103.952 24.2989 103.49 24.749 102.905 24.749ZM94.8964 23.6087H102.781H96.498C95.6664 23.6087 94.9887 22.9784 94.9887 22.1982V9.11382H94.9271V23.6087H94.8964Z" fill="#161616"/>
<path d="M113.574 17.7567V23.8487C113.574 24.0288 113.389 24.1788 113.204 24.1788H112.65C112.465 24.1788 112.311 24.0288 112.311 23.8487V17.7567L106.613 9.08381C106.459 8.84373 106.644 8.54363 106.921 8.54363H107.383C107.568 8.54363 107.753 8.63366 107.845 8.78371L112.095 15.2959C112.496 15.8961 113.42 15.8961 113.759 15.2959L118.009 8.81372C118.102 8.66367 118.286 8.57364 118.471 8.57364H119.118C119.303 8.57364 119.426 8.78371 119.334 8.93376L113.574 17.7567Z" fill="#161616"/>
<path d="M113.204 24.749H112.65C112.126 24.749 111.726 24.3589 111.726 23.8787V17.9068L106.089 9.38391C105.905 9.11382 105.905 8.7537 106.059 8.4536C106.243 8.18351 106.551 8.00345 106.89 8.00345H107.352C107.753 8.00345 108.091 8.21352 108.338 8.51362L112.588 15.0258C112.681 15.1758 112.866 15.2059 112.927 15.2059C112.989 15.2059 113.174 15.1758 113.266 15.0258L117.516 8.51362C117.701 8.18351 118.102 8.00345 118.502 8.00345H119.149C119.457 8.00345 119.734 8.1535 119.888 8.42359C120.042 8.66367 120.042 8.99378 119.857 9.23386L114.128 17.9068V23.8487C114.159 24.3589 113.728 24.749 113.204 24.749ZM112.896 23.6087H112.958V17.5766L114.159 15.776C113.882 16.1062 113.42 16.3162 112.958 16.3162C112.403 16.3162 111.911 16.0761 111.633 15.596L112.927 17.5766V23.6087H112.896Z" fill="#161616"/>
<path d="M13.7988 18.816C16.6016 16.1451 21.9302 11.0134 24.9486 8.16245C25.1027 8.0124 25.9959 7.20213 26.3963 7.26215C26.8891 7.32217 26.8583 8.28249 26.8583 8.52257V23.6176C26.8583 23.6176 26.6427 24.878 28.5215 24.848C29.7536 24.848 29.692 24.818 30.9548 24.818C32.6796 24.818 32.6796 24.1878 32.6796 23.7376C32.6796 15.6349 32.5872 10.1431 32.5872 2.04041C32.5872 0.960051 32.5872 0.449881 32.002 0.119771C31.4168 -0.210339 30.9548 0.179791 30.154 0.840011C26.9199 3.48089 19.8049 10.8033 16.078 14.3445C15.6468 14.6746 7.7002 5.34151 2.92608 0.779991C2.49486 0.419871 1.81725 -0.240349 0.924024 0.0897612C0.0308008 0.419871 0 2.28049 0 2.37052C0 7.35218 0.030801 14.4946 0.0616018 23.8277C0.0616018 24.2178 0.123203 24.4579 0.246406 24.6079C0.431211 24.818 0.36961 24.788 0.924024 24.788C1.47844 24.788 1.60164 24.818 1.75565 24.6379C1.90965 24.4579 1.87885 24.1578 1.87885 23.8577C1.97125 21.787 1.66324 11.7336 1.72484 8.67262C1.72484 8.25248 2.24846 8.04241 2.58727 8.34251C5.91375 11.2835 8.90143 15.5449 12.2895 18.6059C12.4743 19.0861 13.1827 19.3862 13.7988 18.816Z" fill="#161616"/>
</svg>
